<svg width="50" height="50" viewBox="0 0 50 50"
     xmlns="http://www.w3.org/2000/svg"
     fill="none" stroke="currentColor" stroke-width="0.5"
     stroke-linecap="round" stroke-linejoin="round">

  <!-- Outer circle -->
  <circle cx="25" cy="25" r="10" />

  <!-- Inner circle -->
  <circle cx="25" cy="25" r="5" />

  <!-- Checkmark -->
  <path d="M22 25 l2 2 l4 -4" />

  <!-- Top arrow -->
  <line x1="25" y1="5" x2="25" y2="15" />
  <polyline points="23,13 25,15 27,13" />

  <!-- Bottom arrow -->
  <line x1="25" y1="45" x2="25" y2="35" />
  <polyline points="23,37 25,35 27,37" />

  <!-- Left arrow -->
  <line x1="5" y1="25" x2="15" y2="25" />
  <polyline points="13,23 15,25 13,27" />

  <!-- Right arrow -->
  <line x1="45" y1="25" x2="35" y2="25" />
  <polyline points="37,23 35,25 37,27" />

  <!-- Top-left diagonal arrow -->
  <line x1="12" y1="12" x2="18" y2="18" />
  <circle cx="12" cy="12" r="1.5" />

  <!-- Top-right diagonal arrow -->
  <line x1="38" y1="12" x2="32" y2="18" />
  <circle cx="38" cy="12" r="1.5" />

  <!-- Bottom-left diagonal arrow -->
  <line x1="12" y1="38" x2="18" y2="32" />
  <circle cx="12" cy="38" r="1.5" />

  <!-- Bottom-right diagonal arrow -->
  <line x1="38" y1="38" x2="32" y2="32" />
  <circle cx="38" cy="38" r="1.5" />

</svg>
