<svg
  xmlns="http://www.w3.org/2000/svg"
  viewBox="0 0 50 50"
  stroke="currentColor"
  fill="none"
  stroke-width="0.5"
  stroke-linecap="round"
  stroke-linejoin="round"
>
  <!-- Tall building -->
  <path d="M 10 5 V 45 H 30 V 5 Z" />
  
  <!-- Windows for the tall building -->
  <path d="M 14 9 H 18 V 13 H 14 Z M 22 9 H 26 V 13 H 22 Z M 14 17 H 18 V 21 H 14 Z M 22 17 H 26 V 21 H 22 Z M 14 25 H 18 V 29 H 14 Z M 22 25 H 26 V 29 H 22 Z" />
  
  <!-- Entrance for the tall building -->
  <path d="M 14 45 V 39 A 3 3 0 0 1 16 39 H 24 A 3 3 0 0 1 26 39 V 45" />

  <!-- Shorter building -->
  <path d="M 30 25 V 45 H 45 V 25 Z" />

  <!-- Windows for the shorter building, now centered -->
  <path d="M 32 29 H 36 V 33 H 32 Z M 39 29 H 43 V 33 H 39 Z" />

  <!-- Entrance for the shorter building, now centered -->
  <path d="M 34 45 V 39 A 3 3 0 0 1 37 39 H 38 A 3 3 0 0 1 41 39 V 45" />

</svg>