<svg viewBox="0 0 50 50" xmlns="http://www.w3.org/2000/svg" stroke="currentColor" fill="none" stroke-width="0.5" stroke-linecap="round" stroke-linejoin="round">
  <!-- Top screen -->
  <rect x="10" y="4" width="30" height="15" rx="2" ry="2"/>

  <!-- Central circle -->
  <circle cx="25" cy="11.5" r="4"/>

  <!-- Left and right smaller circles -->
  <circle cx="17" cy="11.5" r="1"/>
  <circle cx="33" cy="11.5" r="1"/>

  <!-- Connector lines -->
  <line x1="25" y1="19" x2="25" y2="24"/>
  <line x1="17" y1="24" x2="33" y2="24"/>
  <line x1="17" y1="24" x2="17" y2="28"/>
  <line x1="25" y1="24" x2="25" y2="28"/>
  <line x1="33" y1="24" x2="33" y2="28"/>

  <!-- Person icons -->
  <!-- Left -->
  <circle cx="17" cy="32" r="2"/>
  <path d="M14.5 36 Q17 34 19.5 36"/>

  <!-- Center -->
  <circle cx="25" cy="32" r="2"/>
  <path d="M22.5 36 Q25 34 27.5 36"/>

  <!-- Right -->
  <circle cx="33" cy="32" r="2"/>
  <path d="M30.5 36 Q33 34 35.5 36"/>
</svg>